<svg width="16" height="17" viewBox="0 0 16 17" fill="none" xmlns="http://www.w3.org/2000/svg">
<rect x="2" y="5" width="12" height="10" rx="2" stroke="#3E4056" stroke-width="2"/>
<path fill-rule="evenodd" clip-rule="evenodd" d="M4.42442 5.47131C5.50562 5.86484 7.47145 5.62744 7.84923 4.58949C8.22702 3.55153 6.87371 2.10607 5.7925 1.71254C4.7113 1.31902 3.52855 1.84143 3.15077 2.87939C2.77298 3.91734 3.34322 5.07779 4.42442 5.47131Z" stroke="#3E4056" stroke-width="2"/>
<path fill-rule="evenodd" clip-rule="evenodd" d="M11.5756 5.47131C10.4944 5.86484 8.52855 5.62744 8.15077 4.58949C7.77298 3.55153 9.12629 2.10607 10.2075 1.71254C11.2887 1.31902 12.4714 1.84143 12.8492 2.87939C13.227 3.91734 12.6568 5.07779 11.5756 5.47131Z" stroke="#3E4056" stroke-width="2"/>
<rect x="7" y="5" width="2" height="10" fill="#3E4056"/>
<mask id="path-5-inside-1_9_96" fill="white">
<path d="M0 6C0 4.89543 0.895431 4 2 4H14C15.1046 4 16 4.89543 16 6V9C16 9.55228 15.5523 10 15 10H1C0.447715 10 0 9.55228 0 9V6Z"/>
</mask>
<path d="M0 6C0 4.89543 0.895431 4 2 4H14C15.1046 4 16 4.89543 16 6V9C16 9.55228 15.5523 10 15 10H1C0.447715 10 0 9.55228 0 9V6Z" fill="white" stroke="#3E4056" stroke-width="4" mask="url(#path-5-inside-1_9_96)"/>
</svg>
